STARTFONT 2.1
FONT -FontForge-Consolas-Book-R-Normal--32-310-75-75-M-180-ISO10646-1
SIZE 31 75 75
FONTBOUNDINGBOX 18 32 0 -6
COMMENT "Generated by fontforge, http://fontforge.sourceforge.net"
COMMENT "(c) 2025 Microsoft Corporation. All rights reserved."
STARTPROPERTIES 39
FOUNDRY "FontForge"
FAMILY_NAME "Consolas"
WEIGHT_NAME "Book"
SLANT "R"
SETWIDTH_NAME "Normal"
ADD_STYLE_NAME ""
PIXEL_SIZE 32
POINT_SIZE 310
RESOLUTION_X 75
RESOLUTION_Y 75
SPACING "M"
AVERAGE_WIDTH 180
CHARSET_REGISTRY "ISO10646"
CHARSET_ENCODING "1"
FONTNAME_REGISTRY ""
CHARSET_COLLECTIONS "ISO10646-1"
FONT_NAME "Consolas"
FACE_NAME "Consolas"
COPYRIGHT "(c) 2025 Microsoft Corporation. All rights reserved."
FONT_VERSION "7.01"
FONT_ASCENT 24
FONT_DESCENT 8
UNDERLINE_POSITION -5
UNDERLINE_THICKNESS 3
X_HEIGHT 15
CAP_HEIGHT 19
RAW_ASCENT 742
RAW_DESCENT 257
RELATIVE_WEIGHT 40
RELATIVE_SETWIDTH 50
SUPERSCRIPT_X 0
SUPERSCRIPT_Y 15
SUPERSCRIPT_SIZE 20
SUBSCRIPT_X 0
SUBSCRIPT_Y 4
SUBSCRIPT_SIZE 20
FIGURE_WIDTH 18
AVG_LOWERCASE_WIDTH 180
AVG_UPPERCASE_WIDTH 180
ENDPROPERTIES
CHARS 94
STARTCHAR exclam
ENCODING 33
SWIDTH 549 0
DWIDTH 18 0
BBX 4 22 7 0
BITMAP
E0
E0
E0
E0
E0
E0
E0
E0
E0
E0
E0
E0
E0
E0
E0
E0
00
00
60
F0
F0
60
ENDCHAR
STARTCHAR quotedbl
ENCODING 34
SWIDTH 549 0
DWIDTH 18 0
BBX 11 7 4 15
BITMAP
F1E0
F1E0
F1E0
F1E0
F1E0
F1E0
F1E0
ENDCHAR
STARTCHAR numbersign
ENCODING 35
SWIDTH 549 0
DWIDTH 18 0
BBX 16 20 1 0
BITMAP
0638
0638
0638
0638
0638
7FFF
7FFF
0E70
0E70
0E70
0C70
0C70
FFFE
FFFE
0C70
1CE0
1CE0
1CE0
1CE0
1CE0
ENDCHAR
STARTCHAR dollar
ENCODING 36
SWIDTH 549 0
DWIDTH 18 0
BBX 14 27 2 -4
BITMAP
00C0
00C0
01C0
0FF0
3FF8
7988
E180
E180
E180
F380
7B80
7F00
1FC0
07F0
03F8
033C
071C
071C
061C
063C
C678
FFF0
3FC0
0600
0E00
0E00
0C00
ENDCHAR
STARTCHAR percent
ENCODING 37
SWIDTH 549 0
DWIDTH 18 0
BBX 18 22 0 0
BITMAP
1F0180
3F8380
7BC700
71C600
71CE00
71DC00
7BD800
3FB000
1F7000
006000
00C000
01C000
038000
031F00
073F80
0E7BC0
0C71C0
1C71C0
3871C0
307BC0
703F80
E01F00
ENDCHAR
STARTCHAR ampersand
ENCODING 38
SWIDTH 549 0
DWIDTH 18 0
BBX 17 22 1 0
BITMAP
07C000
1FE000
1CF000
387000
387000
387000
387000
3CE000
1FC000
1F8000
1F0000
3F0E00
7B8E00
71CE00
E1EE00
E0FC00
E07C00
E03C00
F03C00
787E00
3FEF00
1F8780
ENDCHAR
STARTCHAR quotesingle
ENCODING 39
SWIDTH 549 0
DWIDTH 18 0
BBX 4 7 7 15
BITMAP
F0
F0
F0
F0
F0
F0
F0
ENDCHAR
STARTCHAR parenleft
ENCODING 40
SWIDTH 549 0
DWIDTH 18 0
BBX 9 29 4 -6
BITMAP
0100
0380
0700
0E00
1C00
1C00
3800
3800
7000
7000
E000
E000
E000
E000
E000
E000
E000
E000
F000
7000
7000
7800
3800
1C00
1C00
0E00
0700
0380
0100
ENDCHAR
STARTCHAR parenright
ENCODING 41
SWIDTH 549 0
DWIDTH 18 0
BBX 9 29 4 -6
BITMAP
4000
E000
7000
3800
1C00
1C00
0E00
0E00
0700
0700
0780
0380
0380
0380
0380
0380
0380
0380
0300
0700
0700
0E00
0E00
1C00
1C00
3800
7000
E000
4000
ENDCHAR
STARTCHAR asterisk
ENCODING 42
SWIDTH 549 0
DWIDTH 18 0
BBX 12 13 3 9
BITMAP
0600
0600
4620
E670
76E0
1F80
0600
1F80
7FE0
E670
4620
0600
0600
ENDCHAR
STARTCHAR plus
ENCODING 43
SWIDTH 549 0
DWIDTH 18 0
BBX 15 14 2 1
BITMAP
0380
0380
0380
0380
0380
0380
FFFE
FFFE
0380
0380
0380
0380
0380
0380
ENDCHAR
STARTCHAR comma
ENCODING 44
SWIDTH 549 0
DWIDTH 18 0
BBX 8 10 3 -5
BITMAP
0E
1F
1F
1F
0F
0F
0E
1E
F8
E0
ENDCHAR
STARTCHAR hyphen
ENCODING 45
SWIDTH 549 0
DWIDTH 18 0
BBX 9 2 4 7
BITMAP
FF80
FF80
ENDCHAR
STARTCHAR period
ENCODING 46
SWIDTH 549 0
DWIDTH 18 0
BBX 5 5 6 0
BITMAP
70
F8
F8
F8
70
ENDCHAR
STARTCHAR slash
ENCODING 47
SWIDTH 549 0
DWIDTH 18 0
BBX 13 25 2 -3
BITMAP
0018
0038
0038
0070
0070
0060
00E0
00C0
01C0
0180
0380
0380
0700
0700
0600
0E00
0C00
1C00
1800
3800
3800
3000
7000
6000
E000
ENDCHAR
STARTCHAR zero
ENCODING 48
SWIDTH 549 0
DWIDTH 18 0
BBX 15 20 1 0
BITMAP
07C0
1FF0
3C78
783C
701C
701C
E01E
E07E
E0EE
E1CE
E70E
EE0E
FC0E
F00E
701C
701C
783C
3C78
1FF0
0FC0
ENDCHAR
STARTCHAR one
ENCODING 49
SWIDTH 549 0
DWIDTH 18 0
BBX 14 20 2 0
BITMAP
0380
0F80
3B80
7380
E380
4380
0380
0380
0380
0380
0380
0380
0380
0380
0380
0380
0380
0380
7FFC
7FFC
ENDCHAR
STARTCHAR two
ENCODING 50
SWIDTH 549 0
DWIDTH 18 0
BBX 13 20 2 0
BITMAP
1F80
7FC0
E1E0
40F0
0070
0070
0070
0070
00F0
00E0
01E0
03C0
0780
0F00
1E00
3C00
3800
7000
FFF8
FFF8
ENDCHAR
STARTCHAR three
ENCODING 51
SWIDTH 549 0
DWIDTH 18 0
BBX 13 20 3 0
BITMAP
3F80
7FE0
40E0
0070
0070
0070
0070
00E0
01E0
1F80
1FE0
00F0
0078
0038
0038
0038
0070
00F0
FFC0
FF00
ENDCHAR
STARTCHAR four
ENCODING 52
SWIDTH 549 0
DWIDTH 18 0
BBX 16 20 1 0
BITMAP
0078
00F8
01F8
01B8
03B8
0738
0738
0E38
1C38
1C38
3838
3038
7038
E038
FFFF
FFFF
0038
0038
0038
0038
ENDCHAR
STARTCHAR five
ENCODING 53
SWIDTH 549 0
DWIDTH 18 0
BBX 13 20 3 0
BITMAP
FFF0
FFF0
E000
E000
E000
E000
E000
E000
FF80
FFE0
00F0
0078
0038
0038
0038
0038
0070
01E0
FFC0
FF00
ENDCHAR
STARTCHAR six
ENCODING 54
SWIDTH 549 0
DWIDTH 18 0
BBX 14 20 2 0
BITMAP
03F0
0FF0
1E00
3800
7000
7000
6000
E000
EFE0
FFF0
F078
E03C
E01C
E01C
E01C
701C
7038
7878
3FF0
0FC0
ENDCHAR
STARTCHAR seven
ENCODING 55
SWIDTH 549 0
DWIDTH 18 0
BBX 14 20 2 0
BITMAP
FFFC
FFFC
001C
0038
0038
0070
0070
00E0
00E0
01C0
01C0
0380
0380
0700
0700
0F00
0E00
1E00
1C00
3C00
ENDCHAR
STARTCHAR eight
ENCODING 56
SWIDTH 549 0
DWIDTH 18 0
BBX 14 20 2 0
BITMAP
0FE0
3FF8
7038
E01C
E01C
E01C
F03C
7838
3CF0
1FE0
1FE0
3CF0
7038
E01C
E01C
E01C
E01C
7878
7FF0
1FC0
ENDCHAR
STARTCHAR nine
ENCODING 57
SWIDTH 549 0
DWIDTH 18 0
BBX 14 20 2 0
BITMAP
0FC0
3FE0
7870
7038
E038
E01C
E01C
E01C
F01C
783C
3FFC
1FDC
001C
0038
0038
0078
00F0
03E0
7FC0
7E00
ENDCHAR
STARTCHAR colon
ENCODING 58
SWIDTH 549 0
DWIDTH 18 0
BBX 4 16 6 0
BITMAP
60
F0
F0
F0
60
00
00
00
00
00
00
60
F0
F0
F0
60
ENDCHAR
STARTCHAR semicolon
ENCODING 59
SWIDTH 549 0
DWIDTH 18 0
BBX 8 21 4 -5
BITMAP
0C
1E
1E
1E
0C
00
00
00
00
00
00
0E
1F
1F
1F
0F
0F
0E
1E
F8
E0
ENDCHAR
STARTCHAR less
ENCODING 60
SWIDTH 549 0
DWIDTH 18 0
BBX 12 18 2 0
BITMAP
0020
0070
01E0
03C0
0780
0F00
1E00
3C00
7800
F800
3C00
1E00
0F00
0780
03C0
01E0
0070
0020
ENDCHAR
STARTCHAR equal
ENCODING 61
SWIDTH 549 0
DWIDTH 18 0
BBX 13 7 2 5
BITMAP
FFF8
FFF8
0000
0000
0000
FFF8
FFF8
ENDCHAR
STARTCHAR greater
ENCODING 62
SWIDTH 549 0
DWIDTH 18 0
BBX 12 18 3 0
BITMAP
4000
E000
7800
3C00
1E00
0F00
0780
03C0
01F0
01E0
03C0
0780
0F00
1E00
3C00
7800
E000
4000
ENDCHAR
STARTCHAR question
ENCODING 63
SWIDTH 549 0
DWIDTH 18 0
BBX 10 22 5 0
BITMAP
F000
FE00
1F00
0780
0380
01C0
01C0
01C0
01C0
0380
3F80
3E00
3800
3800
3800
3800
0000
0000
3000
7800
7800
3000
ENDCHAR
STARTCHAR at
ENCODING 64
SWIDTH 549 0
DWIDTH 18 0
BBX 17 28 0 -6
BITMAP
01F800
03FC00
0F0E00
0C0700
180300
380300
300380
700180
61F980
63F980
673980
C73980
C63180
CE3180
CE3180
CE3180
CE3100
CE7300
CE7300
C7FE00
C79C00
E00000
600000
600000
700000
3C1800
1FF800
07E000
ENDCHAR
STARTCHAR A
ENCODING 65
SWIDTH 549 0
DWIDTH 18 0
BBX 17 20 0 0
BITMAP
01E000
03E000
036000
077000
077000
063000
0E3800
0E3800
0C1800
1C1C00
1C1C00
180E00
380E00
380E00
7FFF00
7FFF00
700700
E00380
E00380
E00380
ENDCHAR
STARTCHAR B
ENCODING 66
SWIDTH 549 0
DWIDTH 18 0
BBX 13 20 2 0
BITMAP
FF80
FFE0
E0E0
E070
E070
E070
E070
E0F0
E1E0
FF80
FFE0
E0F0
E078
E038
E038
E038
E078
E0F0
FFE0
FF80
ENDCHAR
STARTCHAR C
ENCODING 67
SWIDTH 549 0
DWIDTH 18 0
BBX 15 20 1 0
BITMAP
03FC
0FFE
1E06
3800
7000
7000
F000
E000
E000
E000
E000
E000
E000
E000
7000
7000
3800
3E06
0FFE
03FC
ENDCHAR
STARTCHAR D
ENCODING 68
SWIDTH 549 0
DWIDTH 18 0
BBX 15 20 2 0
BITMAP
FF80
FFF0
E0F8
E038
E01C
E01C
E00E
E00E
E00E
E00E
E00E
E00E
E00E
E00E
E01C
E01C
E038
E0F0
FFE0
FF00
ENDCHAR
STARTCHAR E
ENCODING 69
SWIDTH 549 0
DWIDTH 18 0
BBX 12 20 3 0
BITMAP
FFF0
FFF0
E000
E000
E000
E000
E000
E000
E000
FFF0
FFF0
E000
E000
E000
E000
E000
E000
E000
FFF0
FFF0
ENDCHAR
STARTCHAR F
ENCODING 70
SWIDTH 549 0
DWIDTH 18 0
BBX 12 20 3 0
BITMAP
FFF0
FFF0
E000
E000
E000
E000
E000
E000
E000
FFF0
FFF0
E000
E000
E000
E000
E000
E000
E000
E000
E000
ENDCHAR
STARTCHAR G
ENCODING 71
SWIDTH 549 0
DWIDTH 18 0
BBX 15 20 1 0
BITMAP
03FC
0FFE
1E06
3800
7800
7000
7000
E000
E000
E0FE
E0FE
E00E
E00E
E00E
700E
700E
380E
3E0E
0FFE
03F8
ENDCHAR
STARTCHAR H
ENCODING 72
SWIDTH 549 0
DWIDTH 18 0
BBX 14 20 2 0
BITMAP
E01C
E01C
E01C
E01C
E01C
E01C
E01C
E01C
E01C
FFFC
FFFC
E01C
E01C
E01C
E01C
E01C
E01C
E01C
E01C
E01C
ENDCHAR
STARTCHAR I
ENCODING 73
SWIDTH 549 0
DWIDTH 18 0
BBX 13 20 2 0
BITMAP
FFF8
FFF8
0700
0700
0700
0700
0700
0700
0700
0700
0700
0700
0700
0700
0700
0700
0700
0700
FFF8
FFF8
ENDCHAR
STARTCHAR J
ENCODING 74
SWIDTH 549 0
DWIDTH 18 0
BBX 11 20 3 0
BITMAP
FFE0
FFE0
00E0
00E0
00E0
00E0
00E0
00E0
00E0
00E0
00E0
00E0
00E0
00E0
00E0
00E0
81C0
C3C0
FF80
3E00
ENDCHAR
STARTCHAR K
ENCODING 75
SWIDTH 549 0
DWIDTH 18 0
BBX 14 20 2 0
BITMAP
E01C
E038
E070
E0E0
E1C0
E380
E380
E700
EE00
FC00
FC00
EE00
E700
E380
E1C0
E1E0
E0F0
E070
E038
E01C
ENDCHAR
STARTCHAR L
ENCODING 76
SWIDTH 549 0
DWIDTH 18 0
BBX 12 20 4 0
BITMAP
E000
E000
E000
E000
E000
E000
E000
E000
E000
E000
E000
E000
E000
E000
E000
E000
E000
E000
FFF0
FFF0
ENDCHAR
STARTCHAR M
ENCODING 77
SWIDTH 549 0
DWIDTH 18 0
BBX 16 20 1 0
BITMAP
781E
781E
7C1E
6C36
6C36
6E26
6666
6666
6646
63C6
63C6
6386
6186
6006
6006
6007
6007
E007
E007
E007
ENDCHAR
STARTCHAR N
ENCODING 78
SWIDTH 549 0
DWIDTH 18 0
BBX 14 20 2 0
BITMAP
F01C
F81C
F81C
F81C
EC1C
EC1C
EE1C
E61C
E71C
E31C
E31C
E39C
E19C
E1DC
E0DC
E0DC
E07C
E07C
E07C
E03C
ENDCHAR
STARTCHAR O
ENCODING 79
SWIDTH 549 0
DWIDTH 18 0
BBX 16 20 1 0
BITMAP
07E0
1FF8
3C3C
381E
700E
700E
E007
E007
E007
E007
E007
E007
E007
E007
700E
700E
781C
3C3C
1FF8
07E0
ENDCHAR
STARTCHAR P
ENCODING 80
SWIDTH 549 0
DWIDTH 18 0
BBX 14 20 2 0
BITMAP
FFC0
FFF0
E078
E038
E01C
E01C
E01C
E01C
E01C
E038
E070
FFE0
FF80
E000
E000
E000
E000
E000
E000
E000
ENDCHAR
STARTCHAR Q
ENCODING 81
SWIDTH 549 0
DWIDTH 18 0
BBX 17 26 1 -6
BITMAP
07E000
1FF800
3C3C00
381E00
700E00
700E00
E00700
E00700
E00700
E00700
E00700
E00700
E00700
E00700
F00E00
700E00
781C00
3C3C00
1FF800
07E000
01C000
01C000
01E000
00F100
007F80
003F00
ENDCHAR
STARTCHAR R
ENCODING 82
SWIDTH 549 0
DWIDTH 18 0
BBX 14 20 3 0
BITMAP
FF80
FFE0
E0E0
E070
E070
E070
E070
E0F0
E1E0
FFC0
FF00
E380
E1C0
E1E0
E0E0
E0F0
E070
E038
E038
E01C
ENDCHAR
STARTCHAR S
ENCODING 83
SWIDTH 549 0
DWIDTH 18 0
BBX 14 20 2 0
BITMAP
0FE0
3FF8
7818
E000
E000
E000
F000
7800
7E00
1FC0
07F0
00F8
003C
001C
001C
001C
003C
C078
FFF0
3FC0
ENDCHAR
STARTCHAR T
ENCODING 84
SWIDTH 549 0
DWIDTH 18 0
BBX 15 20 1 0
BITMAP
FFFE
FFFE
0380
0380
0380
0380
0380
0380
0380
0380
0380
0380
0380
0380
0380
0380
0380
0380
0380
0380
ENDCHAR
STARTCHAR U
ENCODING 85
SWIDTH 549 0
DWIDTH 18 0
BBX 14 20 2 0
BITMAP
E01C
E01C
E01C
E01C
E01C
E01C
E01C
E01C
E01C
E01C
E01C
E01C
E01C
E01C
E01C
E01C
7038
7878
3FF0
0FC0
ENDCHAR
STARTCHAR V
ENCODING 86
SWIDTH 549 0
DWIDTH 18 0
BBX 17 20 1 0
BITMAP
E00380
E00380
E00380
700700
700700
780700
380E00
380E00
3C0C00
1C1C00
1C1C00
0E1800
0E3800
0E3800
077000
077000
077000
03E000
03E000
03C000
ENDCHAR
STARTCHAR W
ENCODING 87
SWIDTH 549 0
DWIDTH 18 0
BBX 16 20 1 0
BITMAP
E007
E007
E007
E007
E007
E007
E007
E187
E1C7
E3C7
63C6
63E6
6666
6666
6676
7C36
7C36
7C3E
781E
781E
ENDCHAR
STARTCHAR X
ENCODING 88
SWIDTH 549 0
DWIDTH 18 0
BBX 18 20 0 0
BITMAP
780780
380700
1C0E00
1E1E00
0F1C00
073800
07F800
03F000
01E000
01E000
01F000
03F000
07F800
0F3C00
0E1C00
1E1E00
3C0F00
380700
700780
F003C0
ENDCHAR
STARTCHAR Y
ENCODING 89
SWIDTH 549 0
DWIDTH 18 0
BBX 17 20 1 0
BITMAP
E00380
700700
700700
380E00
3C0E00
1C1C00
1E1C00
0E3800
073000
077000
03E000
03E000
01C000
01C000
01C000
01C000
01C000
01C000
01C000
01C000
ENDCHAR
STARTCHAR Z
ENCODING 90
SWIDTH 549 0
DWIDTH 18 0
BBX 14 20 2 0
BITMAP
FFFC
FFFC
0038
0038
0070
00E0
00E0
01C0
0180
0380
0700
0700
0E00
1C00
1C00
3800
3000
7000
FFFC
FFFC
ENDCHAR
STARTCHAR bracketleft
ENCODING 91
SWIDTH 549 0
DWIDTH 18 0
BBX 8 29 5 -6
BITMAP
FF
FF
E0
E0
E0
E0
E0
E0
E0
E0
E0
E0
E0
E0
E0
E0
E0
E0
E0
E0
E0
E0
E0
E0
E0
E0
E0
FF
FF
ENDCHAR
STARTCHAR backslash
ENCODING 92
SWIDTH 549 0
DWIDTH 18 0
BBX 13 25 3 -3
BITMAP
E000
6000
7000
3000
3800
3800
1800
1C00
0C00
0E00
0600
0700
0700
0380
0380
0180
01C0
00C0
00E0
0060
0070
0070
0038
0038
0018
ENDCHAR
STARTCHAR bracketright
ENCODING 93
SWIDTH 549 0
DWIDTH 18 0
BBX 8 29 5 -6
BITMAP
FF
FF
07
07
07
07
07
07
07
07
07
07
07
07
07
07
07
07
07
07
07
07
07
07
07
07
07
FF
FF
ENDCHAR
STARTCHAR asciicircum
ENCODING 94
SWIDTH 549 0
DWIDTH 18 0
BBX 13 10 2 10
BITMAP
0700
0780
0D80
1DC0
18C0
38E0
3060
7070
E038
E038
ENDCHAR
STARTCHAR underscore
ENCODING 95
SWIDTH 549 0
DWIDTH 18 0
BBX 18 2 0 -6
BITMAP
FFFFC0
FFFFC0
ENDCHAR
STARTCHAR grave
ENCODING 96
SWIDTH 549 0
DWIDTH 18 0
BBX 7 4 4 19
BITMAP
F0
78
3C
1E
ENDCHAR
STARTCHAR a
ENCODING 97
SWIDTH 549 0
DWIDTH 18 0
BBX 13 16 2 0
BITMAP
1FC0
7FF0
60F0
0078
0038
0038
0038
1FF8
7FF8
7038
E038
E038
E078
F1F8
7FF8
3F38
ENDCHAR
STARTCHAR b
ENCODING 98
SWIDTH 549 0
DWIDTH 18 0
BBX 14 22 3 0
BITMAP
E000
E000
E000
E000
E000
E000
E3E0
EFF0
FC78
F838
F01C
E01C
E01C
E01C
E01C
E01C
E01C
E038
E038
F0F0
FFE0
3F80
ENDCHAR
STARTCHAR c
ENCODING 99
SWIDTH 549 0
DWIDTH 18 0
BBX 12 16 2 0
BITMAP
07E0
1FF0
3C10
7800
7000
E000
E000
E000
E000
E000
E000
F000
7000
7C10
3FF0
0FE0
ENDCHAR
STARTCHAR d
ENCODING 100
SWIDTH 549 0
DWIDTH 18 0
BBX 14 22 2 0
BITMAP
001C
001C
001C
001C
001C
001C
07FC
1FFC
3C1C
701C
701C
E01C
E01C
E01C
E01C
E01C
E01C
E03C
707C
78FC
3FDC
1F1C
ENDCHAR
STARTCHAR e
ENCODING 101
SWIDTH 549 0
DWIDTH 18 0
BBX 14 16 2 0
BITMAP
0FC0
1FF0
3878
7038
701C
E01C
E01C
FFFC
FFFC
E000
E000
E000
7000
7C08
3FF8
0FE0
ENDCHAR
STARTCHAR f
ENCODING 102
SWIDTH 549 0
DWIDTH 18 0
BBX 16 22 1 0
BITMAP
007F
01FF
03C0
0780
0700
0700
0700
0700
0700
FFFE
FFFE
0700
0700
0700
0700
0700
0700
0700
0700
0700
0700
0700
ENDCHAR
STARTCHAR g
ENCODING 103
SWIDTH 549 0
DWIDTH 18 0
BBX 16 22 1 -6
BITMAP
07FF
1FFF
3C78
783C
701C
701C
701C
783C
3C78
3FF0
77C0
7000
7000
7800
3FF8
3FFC
701E
E00E
E00E
F03C
7FF8
1FE0
ENDCHAR
STARTCHAR h
ENCODING 104
SWIDTH 549 0
DWIDTH 18 0
BBX 13 22 3 0
BITMAP
E000
E000
E000
E000
E000
E000
E3C0
EFF0
FC70
F838
F038
E038
E038
E038
E038
E038
E038
E038
E038
E038
E038
E038
ENDCHAR
STARTCHAR i
ENCODING 105
SWIDTH 549 0
DWIDTH 18 0
BBX 13 22 3 0
BITMAP
0600
0F00
0F00
0600
0000
0000
7F00
7F00
0700
0700
0700
0700
0700
0700
0700
0700
0700
0700
0700
0700
FFF8
FFF8
ENDCHAR
STARTCHAR j
ENCODING 106
SWIDTH 549 0
DWIDTH 18 0
BBX 12 28 2 -6
BITMAP
0060
00F0
00F0
0060
0000
0000
7FE0
7FE0
00E0
00E0
00E0
00E0
00E0
00E0
00E0
00E0
00E0
00E0
00E0
00E0
00E0
00E0
00E0
00E0
01C0
83C0
FF80
7E00
ENDCHAR
STARTCHAR k
ENCODING 107
SWIDTH 549 0
DWIDTH 18 0
BBX 14 22 3 0
BITMAP
E000
E000
E000
E000
E000
E000
E038
E070
E0E0
E1C0
E380
E700
EE00
FC00
EE00
E700
E780
E3C0
E1E0
E0F0
E078
E03C
ENDCHAR
STARTCHAR l
ENCODING 108
SWIDTH 549 0
DWIDTH 18 0
BBX 13 22 3 0
BITMAP
7F00
7F00
0700
0700
0700
0700
0700
0700
0700
0700
0700
0700
0700
0700
0700
0700
0700
0700
0700
0700
FFF8
FFF8
ENDCHAR
STARTCHAR m
ENCODING 109
SWIDTH 549 0
DWIDTH 18 0
BBX 15 16 2 0
BITMAP
EF3C
FF7C
F3CE
F3CE
E38E
E38E
E38E
E38E
E38E
E38E
E38E
E38E
E38E
E38E
E38E
E38E
ENDCHAR
STARTCHAR n
ENCODING 110
SWIDTH 549 0
DWIDTH 18 0
BBX 13 16 3 0
BITMAP
E3E0
EFF0
FC70
F038
F038
E038
E038
E038
E038
E038
E038
E038
E038
E038
E038
E038
ENDCHAR
STARTCHAR o
ENCODING 111
SWIDTH 549 0
DWIDTH 18 0
BBX 15 16 1 0
BITMAP
07E0
1FF8
3838
701C
701E
E00E
E00E
E00E
E00E
E00E
E00E
F01C
701C
3838
3FF0
0FC0
ENDCHAR
STARTCHAR p
ENCODING 112
SWIDTH 549 0
DWIDTH 18 0
BBX 13 22 3 -6
BITMAP
E7C0
EFE0
FCF0
F070
F038
E038
E038
E038
E038
E038
E038
E070
E070
E0E0
FFC0
FF80
E000
E000
E000
E000
E000
E000
ENDCHAR
STARTCHAR q
ENCODING 113
SWIDTH 549 0
DWIDTH 18 0
BBX 14 22 2 -6
BITMAP
07FC
1FFC
3C3C
701C
701C
E01C
E01C
E01C
E01C
E01C
E01C
E03C
707C
78FC
3FDC
1F1C
001C
001C
001C
001C
001C
001C
ENDCHAR
STARTCHAR r
ENCODING 114
SWIDTH 549 0
DWIDTH 18 0
BBX 13 16 3 0
BITMAP
E3E0
EFF0
FC70
F838
F038
E038
E000
E000
E000
E000
E000
E000
E000
E000
E000
E000
ENDCHAR
STARTCHAR s
ENCODING 115
SWIDTH 549 0
DWIDTH 18 0
BBX 12 16 3 0
BITMAP
1FC0
7FE0
7020
E000
E000
F000
7C00
3F80
1FE0
03F0
00F0
0070
0070
C0E0
FFE0
7F80
ENDCHAR
STARTCHAR t
ENCODING 116
SWIDTH 549 0
DWIDTH 18 0
BBX 14 21 1 0
BITMAP
0600
0E00
0E00
0E00
0E00
FFFC
FFFC
0E00
0E00
0E00
0E00
0E00
0E00
0E00
0E00
0E00
0E00
0700
0780
03FC
01FC
ENDCHAR
STARTCHAR u
ENCODING 117
SWIDTH 549 0
DWIDTH 18 0
BBX 13 16 3 0
BITMAP
E038
E038
E038
E038
E038
E038
E038
E038
E038
E038
E038
E078
E0F8
71F8
7FB8
3E38
ENDCHAR
STARTCHAR v
ENCODING 118
SWIDTH 549 0
DWIDTH 18 0
BBX 15 16 2 0
BITMAP
E00E
E00E
F00C
701C
701C
3838
3838
3830
1C70
1C70
0C60
0EE0
0EC0
06C0
07C0
0380
ENDCHAR
STARTCHAR w
ENCODING 119
SWIDTH 549 0
DWIDTH 18 0
BBX 15 16 1 0
BITMAP
C006
C006
C006
C00E
E38E
E38E
E38E
E6CE
66CC
66CC
66CC
6C6C
6C6C
7C7C
783C
7838
ENDCHAR
STARTCHAR x
ENCODING 120
SWIDTH 549 0
DWIDTH 18 0
BBX 16 16 1 0
BITMAP
F01E
781C
3838
1C70
1E70
0FE0
07C0
03C0
07C0
07E0
0EF0
1E70
1C38
381C
781E
F00F
ENDCHAR
STARTCHAR y
ENCODING 121
SWIDTH 549 0
DWIDTH 18 0
BBX 16 22 1 -6
BITMAP
7007
7007
7806
380E
380E
1C1C
1C1C
1C18
0E38
0E30
0670
0760
0760
03E0
03C0
01C0
0180
0380
0700
0E00
FC00
F800
ENDCHAR
STARTCHAR z
ENCODING 122
SWIDTH 549 0
DWIDTH 18 0
BBX 13 16 3 0
BITMAP
FFF0
FFF0
00E0
00E0
01C0
0380
0380
0700
0E00
0C00
1C00
3800
3000
7000
FFF8
FFF8
ENDCHAR
STARTCHAR braceleft
ENCODING 123
SWIDTH 549 0
DWIDTH 18 0
BBX 11 29 3 -6
BITMAP
01E0
07E0
0700
0E00
0E00
0E00
0E00
0E00
0E00
0E00
0E00
0E00
1C00
F800
F800
1C00
0E00
0E00
0E00
0E00
0E00
0E00
0E00
0E00
0E00
0E00
0700
07E0
01E0
ENDCHAR
STARTCHAR bar
ENCODING 124
SWIDTH 549 0
DWIDTH 18 0
BBX 3 32 8 -6
BITMAP
E0
E0
E0
E0
E0
E0
E0
E0
E0
E0
E0
E0
E0
E0
E0
E0
E0
E0
E0
E0
E0
E0
E0
E0
E0
E0
E0
E0
E0
E0
E0
E0
ENDCHAR
STARTCHAR braceright
ENCODING 125
SWIDTH 549 0
DWIDTH 18 0
BBX 11 29 4 -6
BITMAP
F000
FC00
1C00
0E00
0E00
0E00
0E00
0E00
0E00
0E00
0E00
0E00
0700
03E0
03E0
0700
0E00
0E00
0E00
0E00
0E00
0E00
0E00
0E00
0E00
0E00
1C00
FC00
F000
ENDCHAR
STARTCHAR asciitilde
ENCODING 126
SWIDTH 549 0
DWIDTH 18 0
BBX 16 6 1 6
BITMAP
3C00
7F07
F387
E1CF
E0FE
003C
ENDCHAR
ENDFONT
